<svg width="68" height="68" viewBox="0 0 68 68" fill="none" xmlns="http://www.w3.org/2000/svg">
<path d="M34 66C51.6731 66 66 51.6731 66 34C66 16.3269 51.6731 2 34 2C16.3269 2 2 16.3269 2 34C2 51.6731 16.3269 66 34 66Z" fill="url(#paint0_linear)" stroke="white" stroke-width="4"/>
<path fill-rule="evenodd" clip-rule="evenodd" d="M28.9229 23.9653C29.414 23.9653 29.7946 23.5539 29.7946 23.0914C29.7946 22.629 29.414 22.2402 28.9229 22.2402C28.8982 22.2402 28.8741 22.2408 28.8508 22.2418H26.7331C24.4254 22.2418 22.5547 24.1125 22.5547 26.4202V41.4505C22.5547 43.7582 24.4254 45.6289 26.7331 45.6289H40.9545C43.2621 45.6289 45.1329 43.7582 45.1329 41.4505V40.3852H45.7501C46.1945 40.3852 46.5547 40.025 46.5547 39.5807V33.5782C46.5547 33.1338 46.1945 32.7736 45.7501 32.7736H39.0969C36.995 32.7736 35.2911 34.4775 35.2911 36.5794C35.2911 38.6813 36.995 40.3852 39.0969 40.3852H43.3961V41.4848C43.3961 42.8034 42.3271 43.8724 41.0084 43.8724H26.6791C25.3605 43.8724 24.2915 42.8034 24.2915 41.4848V26.3529C24.2915 25.0342 25.3605 23.9653 26.6791 23.9653H28.9229ZM39.3304 34.5302C38.1986 34.5302 37.2812 35.4476 37.2812 36.5794C37.2812 37.7112 38.1986 38.6287 39.3304 38.6287H44.8072V34.5302H39.3304ZM40.7407 26.3331H42.1663C43.4849 26.3331 44.5539 27.4021 44.5539 28.7207V29.7821C44.5553 29.802 44.5559 29.822 44.5559 29.8422C44.5559 30.3272 44.1671 30.7204 43.6875 30.7204C43.2092 30.7204 42.8213 30.3293 42.8192 29.8461H42.8171V29.2834C42.8171 28.6241 42.2827 28.0896 41.6233 28.0896H27.2534C27.236 28.0907 27.2184 28.0912 27.2008 28.0912C26.7212 28.0912 26.3324 27.698 26.3324 27.2129C26.3324 26.9743 26.4265 26.7579 26.5792 26.5996L26.5547 26.5351L26.7632 26.4542C26.8429 26.407 26.9308 26.3724 27.0241 26.3529L37.3036 22.3621C38.2305 22.0023 39.2731 22.4664 39.6259 23.396L40.7407 26.3331ZM39.2707 26.3331H30.9326L37.6392 23.7294C37.9481 23.6095 38.2957 23.7642 38.4133 24.0741L39.2707 26.3331Z" fill="white"/>
<defs>
<linearGradient id="paint0_linear" x1="5.33988" y1="6.67977" x2="5.33988" y2="64" gradientUnits="userSpaceOnUse">
<stop stop-color="#FFCB19"/>
<stop offset="1" stop-color="#FCAF0F"/>
</linearGradient>
</defs>
</svg>
