<svg width="32" height="24" viewBox="0 0 32 24" fill="none" xmlns="http://www.w3.org/2000/svg">
<rect x="14.1367" y="2.13281" width="16.4286" height="16.4286" rx="1" transform="rotate(14.2739 14.1367 2.13281)" stroke="#070707" stroke-width="1.84"/>
<path d="M16.3705 8.01265C17.1912 8.22144 18.0258 7.7254 18.2346 6.9047C18.4434 6.08401 17.9473 5.24945 17.1266 5.04065C16.3059 4.83186 15.4714 5.3279 15.2626 6.14859C15.0538 6.96929 15.5498 7.80385 16.3705 8.01265Z" fill="white"/>
<path d="M19.6947 13.6049C20.5154 13.8137 21.35 13.3177 21.5588 12.497C21.7676 11.6763 21.2715 10.8417 20.4508 10.6329C19.6301 10.4241 18.7956 10.9202 18.5868 11.7409C18.378 12.5616 18.874 13.3961 19.6947 13.6049Z" fill="#070707"/>
<path d="M23.0189 19.1972C23.8396 19.406 24.6742 18.91 24.883 18.0893C25.0918 17.2686 24.5958 16.434 23.7751 16.2252C22.9544 16.0164 22.1198 16.5125 21.911 17.3332C21.7022 18.1539 22.1983 18.9884 23.0189 19.1972Z" fill="#070707"/>
<path d="M25.1244 10.9179C25.9451 11.1267 26.7797 10.6307 26.9885 9.80998C27.1973 8.98928 26.7012 8.15472 25.8805 7.94593C25.0598 7.73713 24.2253 8.23317 24.0165 9.05387C23.8077 9.87456 24.3037 10.7091 25.1244 10.9179Z" fill="#070707"/>
<rect x="1.4375" y="4.14648" width="16.4286" height="16.4286" rx="1" transform="rotate(-13.0458 1.4375 4.14648)" fill="white" stroke="#070707" stroke-width="1.84"/>
<path d="M6.11959 8.3455C6.94457 8.15434 7.45838 7.3306 7.26723 6.50562C7.07607 5.68064 6.25233 5.16683 5.42735 5.35798C4.60237 5.54914 4.08856 6.37288 4.27971 7.19786C4.47087 8.02284 5.29461 8.53665 6.11959 8.3455Z" fill="#070707"/>
<path d="M11.6391 11.7884C12.4641 11.5972 12.9779 10.7735 12.7868 9.94849C12.5956 9.12351 11.7719 8.6097 10.9469 8.80085C10.1219 8.99201 9.60809 9.81575 9.79924 10.6407C9.9904 11.4657 10.8141 11.9795 11.6391 11.7884Z" fill="#070707"/>
<path d="M17.1587 15.2312C17.9836 15.0401 18.4974 14.2163 18.3063 13.3914C18.1151 12.5664 17.2914 12.0526 16.4664 12.2437C15.6414 12.4349 15.1276 13.2586 15.3188 14.0836C15.5099 14.9086 16.3337 15.4224 17.1587 15.2312Z" fill="#070707"/>
</svg>
