<svg width="18" height="22" viewBox="0 0 18 22" fill="none" xmlns="http://www.w3.org/2000/svg">
<g opacity="0.87">
<path fill-rule="evenodd" clip-rule="evenodd" d="M15.57 15.6303C16.0131 16.568 16.4555 16.878 16.5143 16.9161C16.7621 17.0307 16.8842 17.2956 16.8273 17.564C16.7697 17.8351 16.5163 18.022 16.2397 18.022H11.9449C11.9209 19.6681 10.5774 21 8.92835 21C7.27933 21 5.93581 19.6681 5.91183 18.022H1.61703C1.34035 18.022 1.08699 17.8351 1.02945 17.564C0.972455 17.2956 1.0946 17.0308 1.34234 16.9161C1.40117 16.8779 1.84363 16.568 2.28663 15.6303C3.10027 13.9083 3.27105 11.4827 3.27105 9.75098C3.27105 7.4527 4.64421 5.46973 6.61187 4.58168V3.22797C6.61187 1.99945 7.60968 1 8.83617 1H9.0205C10.247 1 11.2448 1.99945 11.2448 3.22797V4.58176C13.2059 5.46695 14.5763 7.43984 14.5852 9.72848C14.5855 9.73598 14.5856 9.74344 14.5856 9.75098C14.5856 11.4827 14.7564 13.9084 15.57 15.6303ZM8.83621 2.17379C8.25589 2.17379 7.78378 2.64668 7.78378 3.22797H7.78382V4.20117C8.15351 4.1248 8.53624 4.08461 8.9282 4.08461C9.32027 4.08461 9.70312 4.12484 10.073 4.20129V3.22797C10.073 2.64668 9.60085 2.17379 9.02054 2.17379H8.83621ZM8.92835 19.8262C7.9255 19.8262 7.10749 19.0209 7.0837 18.022H10.773C10.7492 19.0208 9.9312 19.8262 8.92835 19.8262ZM2.95238 16.8481H11.2877H14.9043C14.803 16.6902 14.6998 16.5113 14.5973 16.3091C13.8141 14.765 13.416 12.5664 13.4137 9.77453C13.4135 9.76734 13.4134 9.76016 13.4134 9.75293C13.4134 7.27375 11.4013 5.2584 8.92816 5.2584C6.45503 5.2584 4.44296 7.27375 4.44296 9.75098C4.44296 12.5541 4.04476 14.7606 3.25945 16.3091C3.15691 16.5113 3.05374 16.6902 2.95238 16.8481Z" fill="white"/>
<path d="M16.5143 16.9161L16.3782 17.1258L16.3932 17.1355L16.4094 17.143L16.5143 16.9161ZM15.57 15.6303L15.7961 15.5235L15.7961 15.5235L15.57 15.6303ZM16.8273 17.564L17.0718 17.6159L17.0718 17.6159L16.8273 17.564ZM11.9449 18.022V17.772H11.6985L11.6949 18.0183L11.9449 18.022ZM5.91183 18.022L6.1618 18.0183L6.15821 17.772H5.91183V18.022ZM1.02945 17.564L1.274 17.5121L1.27399 17.5121L1.02945 17.564ZM1.34234 16.9161L1.44734 17.143L1.46353 17.1355L1.4785 17.1258L1.34234 16.9161ZM2.28663 15.6303L2.0606 15.5235L2.06059 15.5235L2.28663 15.6303ZM6.61187 4.58168L6.71471 4.80955L6.86187 4.74313V4.58168H6.61187ZM11.2448 4.58176H10.9948V4.7432L11.1419 4.80962L11.2448 4.58176ZM14.5852 9.72848L14.3351 9.72945L14.3354 9.73759L14.5852 9.72848ZM7.78378 3.22797H7.53378V3.47797H7.78378V3.22797ZM7.78382 3.22797H8.03382V2.97797H7.78382V3.22797ZM7.78382 4.20117H7.53382V4.50809L7.8344 4.446L7.78382 4.20117ZM10.073 4.20129L10.0224 4.44611L10.323 4.50825V4.20129H10.073ZM7.0837 18.022V17.772H6.82768L6.83378 18.0279L7.0837 18.022ZM10.773 18.022L11.0229 18.0279L11.029 17.772H10.773V18.022ZM2.95238 16.8481L2.74197 16.7131L2.49491 17.0981H2.95238V16.8481ZM14.9043 16.8481V17.0981H15.3617L15.1148 16.7131L14.9043 16.8481ZM14.5973 16.3091L14.3743 16.4222L14.3743 16.4222L14.5973 16.3091ZM13.4137 9.77453L13.6639 9.77433L13.6636 9.76502L13.4137 9.77453ZM3.25945 16.3091L3.4824 16.4222L3.48241 16.4222L3.25945 16.3091ZM16.6505 16.7064C16.6314 16.6941 16.2197 16.4201 15.7961 15.5235L15.344 15.7371C15.8065 16.7159 16.2797 17.0619 16.3782 17.1258L16.6505 16.7064ZM17.0718 17.6159C17.1512 17.2416 16.9803 16.8563 16.6193 16.6892L16.4094 17.143C16.5438 17.2052 16.6172 17.3496 16.5827 17.5122L17.0718 17.6159ZM16.2397 18.272C16.6228 18.272 16.9874 18.0135 17.0718 17.6159L16.5827 17.5121C16.552 17.6567 16.4099 17.772 16.2397 17.772V18.272ZM11.9449 18.272H16.2397V17.772H11.9449V18.272ZM8.92835 21.25C10.7147 21.25 12.1689 19.8077 12.1948 18.0256L11.6949 18.0183C11.6729 19.5285 10.44 20.75 8.92835 20.75V21.25ZM5.66186 18.0256C5.68782 19.8077 7.14197 21.25 8.92835 21.25V20.75C7.41669 20.75 6.18381 19.5285 6.1618 18.0183L5.66186 18.0256ZM1.61703 18.272H5.91183V17.772H1.61703V18.272ZM0.784897 17.6159C0.869288 18.0135 1.23391 18.272 1.61703 18.272V17.772C1.44678 17.772 1.30469 17.6567 1.274 17.5121L0.784897 17.6159ZM1.23734 16.6893C0.876365 16.8563 0.705405 17.2416 0.7849 17.616L1.27399 17.5121C1.23951 17.3497 1.31284 17.2053 1.44734 17.143L1.23734 16.6893ZM2.06059 15.5235C1.63702 16.42 1.2253 16.694 1.20618 16.7065L1.4785 17.1258C1.57703 17.0618 2.05024 16.7159 2.51268 15.7371L2.06059 15.5235ZM3.02105 9.75098C3.02105 11.479 2.84864 13.8557 2.0606 15.5235L2.51267 15.7371C3.3519 13.961 3.52105 11.4863 3.52105 9.75098H3.02105ZM6.50903 4.35381C4.45519 5.28076 3.02105 7.35075 3.02105 9.75098H3.52105C3.52105 7.55464 4.83324 5.6587 6.71471 4.80955L6.50903 4.35381ZM6.36187 3.22797V4.58168H6.86187V3.22797H6.36187ZM8.83617 0.75C7.47122 0.75 6.36187 1.86177 6.36187 3.22797H6.86187C6.86187 2.13714 7.74814 1.25 8.83617 1.25V0.75ZM9.0205 0.75H8.83617V1.25H9.0205V0.75ZM11.4948 3.22797C11.4948 1.86177 10.3854 0.75 9.0205 0.75V1.25C10.1085 1.25 10.9948 2.13714 10.9948 3.22797H11.4948ZM11.4948 4.58176V3.22797H10.9948V4.58176H11.4948ZM14.8352 9.72751C14.8259 7.33733 13.3947 5.27787 11.3477 4.3539L11.1419 4.80962C13.0171 5.65604 14.3267 7.54235 14.3352 9.72945L14.8352 9.72751ZM14.8356 9.75098C14.8356 9.73999 14.8354 9.72946 14.835 9.71936L14.3354 9.73759C14.3355 9.74249 14.3356 9.74689 14.3356 9.75098H14.8356ZM15.7961 15.5235C15.008 13.8557 14.8356 11.4791 14.8356 9.75098H14.3356C14.3356 11.4863 14.5048 13.961 15.344 15.7371L15.7961 15.5235ZM8.03378 3.22797C8.03378 2.78436 8.39436 2.42379 8.83621 2.42379V1.92379C8.11743 1.92379 7.53378 2.509 7.53378 3.22797H8.03378ZM7.78382 2.97797H7.78378V3.47797H7.78382V2.97797ZM8.03382 4.20117V3.22797H7.53382V4.20117H8.03382ZM8.9282 3.83461C8.51911 3.83461 8.11943 3.87657 7.73325 3.95634L7.8344 4.446C8.18759 4.37304 8.55338 4.33461 8.9282 4.33461V3.83461ZM10.1236 3.95646C9.73722 3.87661 9.33742 3.83461 8.9282 3.83461V4.33461C9.30312 4.33461 9.66902 4.37308 10.0224 4.44611L10.1236 3.95646ZM9.82296 3.22797V4.20129H10.323V3.22797H9.82296ZM9.02054 2.42379C9.46239 2.42379 9.82296 2.78436 9.82296 3.22797H10.323C10.323 2.509 9.73932 1.92379 9.02054 1.92379V2.42379ZM8.83621 2.42379H9.02054V1.92379H8.83621V2.42379ZM6.83378 18.0279C6.86078 19.1617 7.78889 20.0762 8.92835 20.0762V19.5762C8.06211 19.5762 7.35421 18.88 7.33363 18.016L6.83378 18.0279ZM10.773 17.772H7.0837V18.272H10.773V17.772ZM8.92835 20.0762C10.0678 20.0762 10.9959 19.1616 11.0229 18.0279L10.523 18.016C10.5025 18.88 9.7946 19.5762 8.92835 19.5762V20.0762ZM11.2877 16.5981H2.95238V17.0981H11.2877V16.5981ZM14.9043 16.5981H11.2877V17.0981H14.9043V16.5981ZM14.3743 16.4222C14.4806 16.6317 14.5879 16.8179 14.6939 16.9831L15.1148 16.7131C15.0181 16.5624 14.919 16.3909 14.8202 16.1961L14.3743 16.4222ZM13.1637 9.77473C13.166 12.5844 13.5658 14.828 14.3743 16.4222L14.8202 16.1961C14.0625 14.7019 13.666 12.5484 13.6637 9.77433L13.1637 9.77473ZM13.1634 9.75293C13.1634 9.76285 13.1635 9.77324 13.1639 9.78404L13.6636 9.76502C13.6634 9.76144 13.6634 9.75746 13.6634 9.75293H13.1634ZM8.92816 5.5084C11.2628 5.5084 13.1634 7.41136 13.1634 9.75293H13.6634C13.6634 7.13614 11.5398 5.0084 8.92816 5.0084V5.5084ZM4.69296 9.75098C4.69296 7.41143 6.59349 5.5084 8.92816 5.5084V5.0084C6.31658 5.0084 4.19296 7.13607 4.19296 9.75098H4.69296ZM3.48241 16.4222C4.29317 14.8235 4.69296 12.5719 4.69296 9.75098H4.19296C4.19296 12.5363 3.79635 14.6977 3.03648 16.1961L3.48241 16.4222ZM3.16278 16.9831C3.26884 16.8179 3.37617 16.6317 3.4824 16.4222L3.03649 16.196C2.93764 16.3909 2.83865 16.5625 2.74197 16.7131L3.16278 16.9831Z" fill="white" fill-opacity="0.87"/>
</g>
<path fill-rule="evenodd" clip-rule="evenodd" d="M14 9C16.2091 9 18 7.20914 18 5C18 2.79086 16.2091 1 14 1C11.7909 1 10 2.79086 10 5C10 7.20914 11.7909 9 14 9Z" fill="#FFD36C"/>
</svg>
