<svg width="21" height="20" viewBox="0 0 21 20" fill="none" xmlns="http://www.w3.org/2000/svg">
<path d="M7.15234 2.35285C7.21297 2.19536 7.65552 1.82974 8.89829 1.5035C10.0804 1.19414 11.6203 1.02539 13.2389 1.02539H13.3177C15.0516 1.02539 16.749 1.21101 17.9857 1.55975C19.2649 1.91974 19.568 2.27973 19.5862 2.37535V2.38098C19.5801 2.46535 19.277 2.85346 17.9312 3.2247C16.6884 3.56782 15.0516 3.75344 13.3177 3.75344C11.6809 3.75344 10.1168 3.57907 8.91648 3.2697C7.75858 2.96596 7.29178 2.62285 7.17659 2.44848C7.17053 2.41473 7.16447 2.38098 7.15234 2.35285Z" fill="#ffffff"/>
<path d="M19.5638 9.10056C19.5638 9.18543 19.291 9.60373 18.0058 10.0038C16.7751 10.3858 15.1383 10.598 13.3924 10.598C11.6403 10.598 10.0035 10.3918 8.79105 10.022C7.50584 9.62798 7.24516 9.2218 7.24516 9.13087C7.24516 9.12481 7.24516 9.12481 7.24516 9.11874L7.21484 7.36673C8.65768 8.10027 11.0644 8.4337 13.2711 8.4337C15.1444 8.4337 16.9146 8.2094 18.2725 7.79716C18.7211 7.66379 19.1516 7.48192 19.5638 7.26367V9.10056Z" fill="#ffffff"/>
<path d="M19.5638 12.4345C19.5638 12.5194 19.291 12.9377 18.0058 13.3378C16.7751 13.7198 15.1383 13.9319 13.3924 13.9319C11.6403 13.9319 10.0035 13.7258 8.79105 13.356C7.50584 12.962 7.24516 12.5558 7.24516 12.4649C7.24516 12.4588 7.24516 12.4588 7.24516 12.4527L7.21484 10.7007C8.65768 11.4343 11.0644 11.7677 13.2711 11.7677C15.1444 11.7677 16.9146 11.5434 18.2725 11.1311C18.7211 10.9978 19.1516 10.8159 19.5638 10.5977V12.4345Z" fill="#ffffff"/>
<path d="M19.5638 15.7695C19.5638 15.8544 19.291 16.2727 18.0058 16.6728C16.7751 17.0547 15.1383 17.2669 13.3924 17.2669C11.6403 17.2669 10.0035 17.0608 8.79105 16.691C7.50584 16.2969 7.24516 15.8907 7.24516 15.7998C7.24516 15.7938 7.24516 15.7938 7.24516 15.7877L7.21484 14.0357C8.65768 14.7692 11.0644 15.1026 13.2711 15.1026C15.1444 15.1026 16.9146 14.8783 18.2725 14.4661C18.7211 14.3327 19.1516 14.1509 19.5638 13.9326V15.7695Z" fill="#ffffff"/>
<path d="M19.5074 5.78452C19.5074 5.86939 19.2285 6.28163 17.919 6.68174C16.6763 7.05761 15.0273 7.26373 13.2692 7.26373C9.94102 7.26373 7.68583 6.51806 7.18872 5.93001L7.17659 5.40865L7.15234 4.02038C7.59489 4.24469 8.05563 4.42049 8.53455 4.5478C9.83796 4.91154 11.5172 5.11766 13.2632 5.11766C15.1061 5.11766 16.8642 4.89942 18.2161 4.49931C18.6829 4.36593 19.1315 4.19013 19.5559 3.96582V5.52384H19.5619C19.5619 5.60265 19.5074 5.69358 19.5074 5.78452Z" fill="#ffffff"/>
<path d="M11.2305 12.2711C11.2305 15.2091 8.84875 17.5908 5.91077 17.5908C2.97278 17.5908 0.591077 15.2091 0.591077 12.2711C0.591077 9.33314 2.97278 6.95143 5.91077 6.95143C8.84875 6.95143 11.2305 9.33314 11.2305 12.2711Z" fill="white" stroke="#ffffff" stroke-width="1.18215"/>
<path d="M7.63426 9.55246L7.25543 10.3019C6.90406 9.9505 6.51975 9.77482 6.10249 9.77482C5.73465 9.77482 5.4272 9.92031 5.18014 10.2113C4.97151 10.4693 4.83151 10.7905 4.76014 11.1748H6.93426L6.72014 11.7019H4.70249C4.697 11.7293 4.69426 11.7678 4.69426 11.8172C4.69426 11.8666 4.69426 11.9297 4.69426 12.0066C4.69426 12.1493 4.697 12.2344 4.70249 12.2619H6.60484L6.39896 12.7807H4.74367C4.80955 13.2254 4.94955 13.574 5.16367 13.8266C5.41073 14.1395 5.74563 14.296 6.16837 14.296C6.44288 14.296 6.67073 14.2521 6.8519 14.1642C7.01661 14.0819 7.20328 13.9446 7.4119 13.7525V14.6666C7.03857 14.9081 6.62406 15.0289 6.16837 15.0289C5.43269 15.0289 4.85896 14.8038 4.4472 14.3536C4.09033 13.9638 3.86798 13.4395 3.78014 12.7807H3.14602L3.36837 12.2619H3.73896C3.73347 12.2234 3.72798 12.1823 3.72249 12.1383C3.72249 12.0944 3.72249 12.0478 3.72249 11.9983C3.72249 11.9599 3.72249 11.916 3.72249 11.8666C3.72798 11.8172 3.73347 11.7623 3.73896 11.7019H3.14602L3.36014 11.1748H3.79661C3.93386 10.5434 4.18367 10.0438 4.54602 9.67599C4.96877 9.25325 5.50955 9.04187 6.16837 9.04187C6.64602 9.04187 7.13465 9.21207 7.63426 9.55246Z" fill="#ffffff"/>
</svg>
