<svg width="91" height="91" viewBox="0 0 91 91" fill="none" xmlns="http://www.w3.org/2000/svg">
<path fill-rule="evenodd" clip-rule="evenodd" d="M45.5 91C70.629 91 91 70.629 91 45.5C91 20.371 70.629 0 45.5 0C20.371 0 0 20.371 0 45.5C0 70.629 20.371 91 45.5 91Z" fill="#55B8B1"/>
<mask id="mask0" mask-type="alpha" maskUnits="userSpaceOnUse" x="0" y="0" width="91" height="91">
<path fill-rule="evenodd" clip-rule="evenodd" d="M45.5 91C70.629 91 91 70.629 91 45.5C91 20.371 70.629 0 45.5 0C20.371 0 0 20.371 0 45.5C0 70.629 20.371 91 45.5 91Z" fill="white"/>
</mask>
<g mask="url(#mask0)">
<path fill-rule="evenodd" clip-rule="evenodd" d="M25.8968 55.8705L75.0262 32.8986L100.818 68.4088L56.0413 99.3918L25.8968 55.8705Z" fill="#419690"/>
</g>
<rect x="26.8672" y="34.5912" width="32" height="15" rx="5" transform="rotate(48 26.8672 34.5912)" fill="white"/>
<rect width="52" height="15" rx="5" transform="matrix(-0.743145 0.669131 0.669131 0.743145 66.0547 22.7299)" fill="white"/>
</svg>
