<svg width="30" height="26" viewBox="0 0 30 26" fill="none" xmlns="http://www.w3.org/2000/svg">
<path d="M10.1641 3.09245C10.2502 2.86864 10.8791 2.34908 12.6452 1.88548C14.3251 1.44585 16.5132 1.20605 18.8134 1.20605H18.9254C21.3893 1.20605 23.8014 1.46983 25.5589 1.96541C27.3766 2.47697 27.8074 2.98854 27.8332 3.12442V3.13241C27.8246 3.25231 27.3938 3.80384 25.4813 4.33139C23.7153 4.81898 21.3893 5.08275 18.9254 5.08275C16.5994 5.08275 14.3767 4.83496 12.671 4.39534C11.0256 3.96371 10.3622 3.47612 10.1985 3.22833C10.1899 3.18037 10.1813 3.13241 10.1641 3.09245Z" fill="#FFD36C"/>
<path d="M27.7985 12.6811C27.7985 12.8017 27.4109 13.3961 25.5845 13.9647C23.8357 14.5075 21.5097 14.809 19.0286 14.809C16.5389 14.809 14.2128 14.5161 12.4899 13.9906C10.6635 13.4306 10.2931 12.8534 10.2931 12.7242C10.2931 12.7156 10.2931 12.7156 10.2931 12.707L10.25 10.2173C12.3003 11.2597 15.7205 11.7335 18.8563 11.7335C21.5183 11.7335 24.0338 11.4147 25.9636 10.8289C26.6011 10.6394 27.2127 10.3809 27.7985 10.0708V12.6811Z" fill="#FFD36C"/>
<path d="M27.7985 17.4194C27.7985 17.54 27.4109 18.1344 25.5845 18.703C23.8357 19.2457 21.5097 19.5473 19.0286 19.5473C16.5389 19.5473 14.2128 19.2544 12.4899 18.7289C10.6635 18.1689 10.2931 17.5917 10.2931 17.4625C10.2931 17.4539 10.2931 17.4539 10.2931 17.4452L10.25 14.9555C12.3003 15.9979 15.7205 16.4718 18.8563 16.4718C21.5183 16.4718 24.0338 16.153 25.9636 15.5672C26.6011 15.3777 27.2127 15.1192 27.7985 14.8091V17.4194Z" fill="#FFD36C"/>
<path d="M27.7985 22.1577C27.7985 22.2783 27.4109 22.8727 25.5845 23.4413C23.8357 23.984 21.5097 24.2856 19.0286 24.2856C16.5389 24.2856 14.2128 23.9926 12.4899 23.4671C10.6635 22.9072 10.2931 22.33 10.2931 22.2007C10.2931 22.1921 10.2931 22.1921 10.2931 22.1835L10.25 19.6938C12.3003 20.7362 15.7205 21.21 18.8563 21.21C21.5183 21.21 24.0338 20.8913 25.9636 20.3055C26.6011 20.1159 27.2127 19.8575 27.7985 19.5474V22.1577Z" fill="#FFD36C"/>
<path d="M27.7212 7.96874C27.7212 8.08935 27.3249 8.67516 25.4641 9.24375C23.6981 9.77787 21.3548 10.0708 18.8565 10.0708C14.1269 10.0708 10.9222 9.01115 10.2158 8.1755L10.1985 7.43462L10.1641 5.46181C10.7929 5.78056 11.4477 6.03039 12.1283 6.21131C13.9805 6.7282 16.3668 7.02111 18.8479 7.02111C21.4668 7.02111 23.9651 6.71097 25.8862 6.14239C26.5496 5.95286 27.1871 5.70303 27.7901 5.38428V7.5983H27.7987C27.7987 7.7103 27.7212 7.83952 27.7212 7.96874Z" fill="#FFD36C"/>
<path d="M15.9591 17.1866C15.9591 21.3617 12.5745 24.7462 8.39952 24.7462C4.22448 24.7462 0.839952 21.3617 0.839952 17.1866C0.839952 13.0116 4.22448 9.62706 8.39952 9.62706C12.5745 9.62706 15.9591 13.0116 15.9591 17.1866Z" fill="white" stroke="#FFD36C" stroke-width="1.6799"/>
<path d="M11.0261 13.5182L10.4878 14.5832C9.98846 14.0839 9.44233 13.8342 8.84939 13.8342C8.32666 13.8342 7.88976 14.0409 7.53867 14.4544C7.2422 14.8211 7.04326 15.2775 6.94183 15.8237H10.0314L9.7271 16.5726H6.85991C6.85211 16.6117 6.84821 16.6663 6.84821 16.7365C6.84821 16.8067 6.84821 16.8964 6.84821 17.0057C6.84821 17.2085 6.85211 17.3294 6.85991 17.3684H9.56326L9.27069 18.1057H6.91843C7.01205 18.7377 7.211 19.2331 7.51527 19.592C7.86635 20.0367 8.34227 20.259 8.94301 20.259C9.3331 20.259 9.65688 20.1966 9.91434 20.0718C10.1484 19.9548 10.4137 19.7597 10.7101 19.4866V20.7857C10.1796 21.1289 9.59056 21.3006 8.94301 21.3006C7.89756 21.3006 7.08227 20.9807 6.49713 20.3409C5.99001 19.787 5.67403 19.0419 5.5492 18.1057H4.64809L4.96406 17.3684H5.49069C5.48289 17.3138 5.47508 17.2553 5.46728 17.1929C5.46728 17.1305 5.46728 17.0642 5.46728 16.9939C5.46728 16.9393 5.46728 16.8769 5.46728 16.8067C5.47508 16.7365 5.48289 16.6585 5.49069 16.5726H4.64809L4.95236 15.8237H5.57261C5.76765 14.9265 6.12264 14.2165 6.63756 13.6938C7.2383 13.093 8.00679 12.7926 8.94301 12.7926C9.62177 12.7926 10.3161 13.0345 11.0261 13.5182Z" fill="#FFD36C"/>
</svg>
