<svg width="18" height="16" viewBox="0 0 18 16" fill="none" xmlns="http://www.w3.org/2000/svg">
<path fill-rule="evenodd" clip-rule="evenodd" d="M5.33341 2.66667C5.33341 0.9344 8.35634 0 11.2001 0C14.0438 0 17.0667 0.9344 17.0667 2.66667V13.3333C17.0667 14.8704 14.6785 15.7568 12.3115 15.9552L12.3065 15.9555C12.2926 15.9565 12.28 15.9573 12.2657 15.9573C11.9915 15.9573 11.7579 15.7472 11.7355 15.4688C11.711 15.1755 11.9297 14.9163 12.2219 14.8928C14.6881 14.6869 16.0001 13.8549 16.0001 13.3333V12.7765C15.3793 13.1723 14.511 13.4859 13.4262 13.6768C13.3953 13.6832 13.3633 13.6853 13.3323 13.6853C13.0795 13.6853 12.8545 13.5029 12.8086 13.2448C12.7574 12.9557 12.9515 12.6784 13.2406 12.6272C15.0337 12.3104 16.0001 11.6555 16.0001 11.2V10.6432C15.3793 11.0389 14.511 11.3525 13.4262 11.5435C13.3953 11.5499 13.3633 11.552 13.3323 11.552C13.0795 11.552 12.8545 11.3696 12.8086 11.1115C12.7574 10.8224 12.9515 10.5451 13.2406 10.4939C15.0337 10.1771 16.0001 9.52213 16.0001 9.06667V8.50987C15.3793 8.90667 14.511 9.2192 13.4262 9.41013C13.3953 9.41653 13.3633 9.41867 13.3323 9.41867C13.0795 9.41867 12.8545 9.23627 12.8086 8.97813C12.7574 8.68907 12.9515 8.41173 13.2406 8.36053C15.0337 8.04373 16.0001 7.3888 16.0001 6.93333V6.36267C15.0838 6.94613 13.7003 7.3056 12.3115 7.42187L12.3065 7.42221C12.2926 7.42315 12.28 7.424 12.2657 7.424C11.9915 7.424 11.7579 7.21387 11.7355 6.93547C11.711 6.64213 11.9297 6.38293 12.2219 6.35947C14.6881 6.1536 16.0001 5.3216 16.0001 4.8V4.24427C14.8683 4.95787 12.9995 5.33333 11.2001 5.33333C9.40061 5.33333 7.53181 4.95787 6.40008 4.24427V4.8C6.40008 5.0944 6.16114 5.33333 5.86674 5.33333C5.57234 5.33333 5.33341 5.0944 5.33341 4.8V2.66667ZM6.40008 2.66667C6.40008 3.3184 8.26994 4.26667 11.2001 4.26667C14.1302 4.26667 16.0001 3.3184 16.0001 2.66667C16.0001 2.01493 14.1302 1.06667 11.2001 1.06667C8.26994 1.06667 6.40008 2.01493 6.40008 2.66667ZM0 9.06666C0 7.33439 3.02293 6.39999 5.86667 6.39999C8.7104 6.39999 11.7333 7.33439 11.7333 9.06666V13.3333C11.7333 15.0656 8.7104 16 5.86667 16C3.02293 16 0 15.0656 0 13.3333V9.06666ZM5.86667 14.9333C8.7968 14.9333 10.6667 13.9851 10.6667 13.3333V12.7776C9.53493 13.4912 7.66613 13.8667 5.86667 13.8667C4.0672 13.8667 2.1984 13.4912 1.06667 12.7776V13.3333C1.06667 13.9851 2.93653 14.9333 5.86667 14.9333ZM5.86667 12.8C8.7968 12.8 10.6667 11.8517 10.6667 11.2V10.6443C9.53493 11.3579 7.66613 11.7333 5.86667 11.7333C4.0672 11.7333 2.1984 11.3579 1.06667 10.6443V11.2C1.06667 11.8517 2.93653 12.8 5.86667 12.8ZM1.06667 9.06666C1.06667 9.71839 2.93653 10.6667 5.86667 10.6667C8.7968 10.6667 10.6667 9.71839 10.6667 9.06666C10.6667 8.41492 8.7968 7.46666 5.86667 7.46666C2.93653 7.46666 1.06667 8.41492 1.06667 9.06666Z" fill="white"/>
</svg>
